<svg width="473" height="187" viewBox="0 0 473 187" fill="none" xmlns="http://www.w3.org/2000/svg">
<mask id="mask0_18_2" style="mask-type:luminance" maskUnits="userSpaceOnUse" x="0" y="0" width="473" height="187">
<path d="M472.039 0H0V187H472.039V0Z" fill="white"/>
</mask>
<g mask="url(#mask0_18_2)">
<path fill-rule="evenodd" clip-rule="evenodd" d="M203.436 128.593H220.74V186.996H203.436V128.593Z" fill="#EB2426"/>
<path fill-rule="evenodd" clip-rule="evenodd" d="M276.653 0.67307C290.268 0.67307 302.573 6.12652 311.497 14.9362C320.429 23.7458 325.934 35.9258 325.934 49.3811V131.049C325.934 144.128 320.721 156.01 312.212 164.758L326.184 186.995H309.611L301.05 173.376L293.185 160.854L279.098 138.434H295.68L303.646 151.118C307.143 145.991 309.18 139.823 309.18 133.172V47.2361C309.18 38.3557 305.541 30.3321 299.656 24.5101C293.764 18.6968 285.642 15.0916 276.66 15.0916C258.704 15.0916 244.139 29.4819 244.139 47.2361V58.3756H227.37V49.367C227.37 22.4705 249.43 0.658936 276.66 0.658936L276.653 0.67307Z" fill="#EB2426"/>
<path fill-rule="evenodd" clip-rule="evenodd" d="M227.37 128.595H244.103V132.768C244.103 150.727 258.632 165.293 276.567 165.293C282.594 165.293 288.227 163.65 293.056 160.776L300.905 173.445C293.72 177.559 285.424 179.903 276.567 179.903C249.386 179.903 227.376 157.837 227.376 130.614V128.589L227.37 128.595Z" fill="#EB2426"/>
<path fill-rule="evenodd" clip-rule="evenodd" d="M203.436 0.676025H220.74V58.3209H203.436V0.676025Z" fill="#EB2426"/>
<path fill-rule="evenodd" clip-rule="evenodd" d="M285.761 60.6389V126.365H269.409C261.007 113.101 252.584 99.8372 244.175 86.5721V126.365H227.37V60.6389H244.175C252.584 73.8398 260.999 87.0331 269.409 100.227V60.6389H285.761Z" fill="#010101"/>
<path fill-rule="evenodd" clip-rule="evenodd" d="M173.577 60.6387H157.467L133.412 126.365H149.523L153.12 115.261H177.954L181.55 126.365H197.632L173.591 60.6387H173.584H173.577ZM156.809 103.824L165.517 76.9349L174.229 103.824H156.801H156.809Z" fill="#EC1E24"/>
<path fill-rule="evenodd" clip-rule="evenodd" d="M126.919 60.6387V126.365H109.006V101.26H84.9529V126.365H67.04V60.6387H84.9529V88.2157H109.006V60.6387H126.919Z" fill="#010101"/>
<path fill-rule="evenodd" clip-rule="evenodd" d="M61.3523 110.049C55.6455 119.808 45.0485 126.365 32.9142 126.365C14.7306 126.365 0 111.659 0 93.5065C0 75.3567 14.7306 60.6467 32.9142 60.6467C44.5267 60.6467 54.7453 66.6601 60.601 75.7176C56.6251 77.8714 52.6568 80.0219 48.6885 82.1615C47.8155 80.6742 45.6704 77.5028 41.6303 75.5545C34.7874 72.2483 28.1305 75.1784 26.8508 75.7742C20.1362 78.9184 15.8809 86.1842 16.082 93.699C16.2744 101.261 20.9723 107.911 27.2226 110.757C28.7099 111.438 33.3143 113.441 38.8775 111.778C44.6843 110.035 47.5013 105.496 48.1449 104.405C52.5568 106.282 56.9621 108.172 61.373 110.057L61.3523 110.071V110.049Z" fill="#010101"/>
<path fill-rule="evenodd" clip-rule="evenodd" d="M203.436 60.6387H220.74V126.365H203.436V60.6387Z" fill="#EC1E24"/>
</g>
<path fill-rule="evenodd" clip-rule="evenodd" d="M331.808 17.5462L336.698 17.0747C336.988 18.6887 337.582 19.8784 338.486 20.6376C339.384 21.3968 340.6 21.7738 342.124 21.7738C343.742 21.7738 344.964 21.4315 345.779 20.7615C346.595 20.0905 347.016 19.304 347.016 18.3947C347.016 17.8203 346.849 17.3205 346.503 16.9172C346.158 16.514 345.558 16.158 344.695 15.864C344.108 15.6656 342.762 15.3033 340.668 14.7972C337.967 14.1398 336.082 13.3334 334.999 12.382C333.471 11.0348 332.712 9.38619 332.712 7.45093C332.712 6.19925 333.072 5.04313 333.784 3.94896C334.501 2.86845 335.537 2.03366 336.891 1.47293C338.237 0.904842 339.873 0.618164 341.786 0.618164C344.909 0.618164 347.257 1.28811 348.839 2.64269C350.421 3.98992 351.241 5.78237 351.325 8.03896L346.304 8.25842C346.09 6.9994 345.626 6.09004 344.917 5.54296C344.205 4.99588 343.147 4.71552 341.732 4.71552C340.315 4.71552 339.135 5.00953 338.299 5.59757C337.768 5.97349 337.499 6.47962 337.499 7.11596C337.499 7.69034 337.747 8.19016 338.245 8.59969C338.872 9.12682 340.42 9.66656 342.865 10.242C345.317 10.809 347.112 11.3908 348.286 12.0061C349.46 12.6151 350.372 13.4499 351.034 14.4958C351.697 15.549 352.029 16.8416 352.029 18.3947C352.029 19.7965 351.629 21.1101 350.841 22.3408C350.055 23.5652 348.922 24.4819 347.479 25.0699C346.035 25.6653 344.226 25.9593 342.064 25.9593C338.914 25.9593 336.504 25.2411 334.811 23.8119C333.125 22.3818 332.117 20.2963 331.787 17.5536H331.808V17.5462Z" fill="#949494"/>
<path fill-rule="evenodd" clip-rule="evenodd" d="M356.069 25.5669V1.00488H361.158V25.5669H356.069Z" fill="#949494"/>
<path fill-rule="evenodd" clip-rule="evenodd" d="M365.859 25.5669V1.00488H373.333L377.822 17.7691L382.255 1.00488H389.749V25.5669H385.108V6.22999L380.196 25.5669H375.389L370.494 6.22999V25.5669H365.845H365.859Z" fill="#949494"/>
<path fill-rule="evenodd" clip-rule="evenodd" d="M394.847 25.5669V1.00488H402.852C405.885 1.00488 407.866 1.12775 408.785 1.37451C410.201 1.74308 411.382 2.55058 412.343 3.7823C413.301 5.01928 413.779 6.61327 413.779 8.56323C413.779 10.068 413.508 11.3396 412.949 12.3655C412.397 13.3914 411.699 14.2052 410.858 14.7943C410.013 15.3823 409.151 15.7646 408.267 15.9567C407.079 16.1961 405.353 16.3053 403.095 16.3053H399.849V25.5669H394.847ZM399.834 5.15682V12.1261H402.563C404.524 12.1261 405.835 11.9969 406.506 11.7428C407.17 11.4898 407.687 11.0865 408.068 10.5332C408.446 9.99237 408.634 9.34973 408.634 8.62413C408.634 7.72843 408.371 6.99654 407.84 6.4085C407.306 5.82047 406.644 5.4645 405.83 5.32064C405.228 5.20408 404.034 5.15682 402.239 5.15682H399.828H399.834Z" fill="#949494"/>
<path fill-rule="evenodd" clip-rule="evenodd" d="M418.098 25.5582V1.13379H423.111V21.4136H435.586V25.5656H418.091H418.098V25.5582Z" fill="#949494"/>
<path fill-rule="evenodd" clip-rule="evenodd" d="M442.462 25.5649V15.2239L433.36 0.996582H439.237L445.081 10.716L450.813 0.996582H456.593L447.463 15.2512V25.5512H442.462V25.5586V25.5649Z" fill="#949494"/>
<path fill-rule="evenodd" clip-rule="evenodd" d="M331.808 49.9509L336.698 49.4794C336.988 51.1007 337.582 52.2967 338.486 53.0559C339.384 53.8225 340.6 54.1984 342.124 54.1984C343.742 54.1984 344.964 53.8561 345.779 53.1798C346.595 52.5026 347.016 51.7161 347.016 50.7994C347.016 50.2176 346.849 49.7188 346.503 49.3146C346.158 48.9113 345.558 48.5491 344.695 48.255C344.108 48.0566 342.762 47.6943 340.668 47.1882C337.967 46.5309 336.082 45.717 334.999 44.7594C333.471 43.4059 332.712 41.7499 332.712 39.801C332.712 38.5493 333.072 37.3796 333.784 36.2854C334.501 35.1975 335.537 34.3638 336.891 33.7957C338.237 33.2276 339.873 32.9336 341.786 32.9336C344.909 32.9336 347.257 33.6109 348.839 34.9718C350.421 36.3263 351.241 38.1324 351.325 40.3964L346.304 40.6148C346.09 39.3495 345.626 38.4401 344.917 37.8857C344.205 37.3312 343.147 37.0509 341.732 37.0509C340.315 37.0509 339.135 37.3523 338.299 37.934C337.768 38.3099 337.499 38.816 337.499 39.4587C337.499 40.0404 337.747 40.5392 338.245 40.9498C338.872 41.4769 340.42 42.024 342.865 42.5984C345.317 43.1664 347.112 43.7545 348.286 44.3698C349.46 44.9852 350.372 45.82 351.034 46.8732C351.697 47.9337 352.029 49.2327 352.029 50.792C352.029 52.2085 351.629 53.5211 350.841 54.7591C350.055 55.9909 348.922 56.9076 347.479 57.5019C346.035 58.0973 344.226 58.3987 342.064 58.3987C338.914 58.3987 336.504 57.6804 334.811 56.2439C333.125 54.8074 332.117 52.7073 331.787 49.9509H331.808Z" fill="#949494"/>
<path fill-rule="evenodd" clip-rule="evenodd" d="M356.202 58.0139V33.4519H363.722L368.232 50.2162L372.693 33.4519H380.228V58.0139H375.567V38.6781L370.63 58.0139H365.795L360.878 38.6781V58.0139H356.208H356.202Z" fill="#949494"/>
<path fill-rule="evenodd" clip-rule="evenodd" d="M407.495 58.0139H402.04L399.871 52.4328H389.941L387.882 58.0139H382.557L392.24 33.4519H397.544L407.489 58.0139H407.495ZM398.27 48.2945L394.844 39.1769L391.488 48.2945H398.27Z" fill="#949494"/>
<path fill-rule="evenodd" clip-rule="evenodd" d="M410.261 58.0139V33.4519H420.814C423.474 33.4519 425.401 33.6714 426.595 34.1155C427.796 34.5534 428.764 35.3399 429.482 36.4687C430.207 37.5976 430.56 38.8828 430.56 40.3403C430.56 42.1863 430.015 43.7047 428.908 44.9018C427.811 46.0989 426.175 46.8654 423.992 47.1731C425.07 47.7958 425.973 48.4857 426.678 49.2312C427.39 49.9841 428.335 51.304 429.531 53.2193L432.562 58.0066H426.568L422.936 52.6649C421.65 50.7569 420.767 49.5462 420.297 49.0537C419.82 48.555 419.323 48.2126 418.791 48.0278C418.26 47.843 417.417 47.7475 416.271 47.7475H415.255V58.0003H410.24H410.261V58.0139ZM415.276 43.8423H418.985C421.395 43.8423 422.893 43.7394 423.495 43.5483C424.095 43.3498 424.565 43.0075 424.903 42.5077C425.241 42.0089 425.408 41.4072 425.408 40.6679C425.408 39.8478 425.186 39.1705 424.736 38.6644C424.295 38.1583 423.667 37.8296 422.851 37.6994C422.445 37.6448 421.223 37.6112 419.192 37.6112H415.276V43.8486V43.8423Z" fill="#949494"/>
<path fill-rule="evenodd" clip-rule="evenodd" d="M440.851 58.0139V37.6112H433.488V33.4519H453.206V37.6112H445.864V58.0139H440.851Z" fill="#949494"/>
</svg>
